<?xml version="1.0" encoding="UTF-8" standalone="no"?>
<svg
   xmlns:dc="http://purl.org/dc/elements/1.1/"
   xmlns:cc="http://creativecommons.org/ns#"
   xmlns:rdf="http://www.w3.org/1999/02/22-rdf-syntax-ns#"
   xmlns:svg="http://www.w3.org/2000/svg"
   xmlns="http://www.w3.org/2000/svg"
   xmlns:sodipodi="http://sodipodi.sourceforge.net/DTD/sodipodi-0.dtd"
   xmlns:inkscape="http://www.inkscape.org/namespaces/inkscape"
   version="1.1"
   x="0px"
   y="0px"
   viewBox="0 0 64 64"
   xml:space="preserve"
   id="svg48"
   sodipodi:docname="noun_coding_1677971.svg"
   width="64"
   height="64"
   inkscape:version="0.92.3 (unknown)"><metadata
     id="metadata54"><rdf:RDF><cc:Work
         rdf:about=""><dc:format>image/svg+xml</dc:format><dc:type
           rdf:resource="http://purl.org/dc/dcmitype/StillImage" /><dc:title></dc:title></cc:Work></rdf:RDF></metadata><defs
     id="defs52" /><sodipodi:namedview
     pagecolor="#ffffff"
     bordercolor="#666666"
     borderopacity="1"
     objecttolerance="10"
     gridtolerance="10"
     guidetolerance="10"
     inkscape:pageopacity="0"
     inkscape:pageshadow="2"
     inkscape:window-width="1549"
     inkscape:window-height="845"
     id="namedview50"
     showgrid="false"
     inkscape:zoom="2.95"
     inkscape:cx="32"
     inkscape:cy="40"
     inkscape:window-x="51"
     inkscape:window-y="27"
     inkscape:window-maximized="1"
     inkscape:current-layer="svg48" /><style
     type="text/css"
     id="style2">
	.st0{display:none;}
	.st1{display:inline;}
	.st2{fill:none;stroke:#B3B3B3;stroke-width:0.1;stroke-miterlimit:10;}
</style><g
     class="st0"
     id="g28"
     style="display:none"
     transform="translate(0,-16)"><g
       class="st1"
       id="g26"
       style="display:inline"><rect
         x="2"
         y="2"
         class="st2"
         width="60"
         height="60"
         id="rect4"
         style="fill:none;stroke:#b3b3b3;stroke-width:0.1;stroke-miterlimit:10" /><line
         class="st2"
         x1="32"
         y1="2"
         x2="32"
         y2="62"
         id="line6"
         style="fill:none;stroke:#b3b3b3;stroke-width:0.1;stroke-miterlimit:10" /><line
         class="st2"
         x1="62"
         y1="32"
         x2="2"
         y2="32"
         id="line8"
         style="fill:none;stroke:#b3b3b3;stroke-width:0.1;stroke-miterlimit:10" /><line
         class="st2"
         x1="2"
         y1="2"
         x2="62"
         y2="62"
         id="line10"
         style="fill:none;stroke:#b3b3b3;stroke-width:0.1;stroke-miterlimit:10" /><rect
         x="10"
         y="10"
         class="st2"
         width="44"
         height="44"
         id="rect12"
         style="fill:none;stroke:#b3b3b3;stroke-width:0.1;stroke-miterlimit:10" /><line
         class="st2"
         x1="62"
         y1="2"
         x2="2"
         y2="62"
         id="line14"
         style="fill:none;stroke:#b3b3b3;stroke-width:0.1;stroke-miterlimit:10" /><line
         class="st2"
         x1="2"
         y1="32"
         x2="32"
         y2="2"
         id="line16"
         style="fill:none;stroke:#b3b3b3;stroke-width:0.1;stroke-miterlimit:10" /><line
         class="st2"
         x1="32"
         y1="2"
         x2="62"
         y2="32"
         id="line18"
         style="fill:none;stroke:#b3b3b3;stroke-width:0.1;stroke-miterlimit:10" /><line
         class="st2"
         x1="62"
         y1="32"
         x2="32"
         y2="62"
         id="line20"
         style="fill:none;stroke:#b3b3b3;stroke-width:0.1;stroke-miterlimit:10" /><line
         class="st2"
         x1="32"
         y1="62"
         x2="2"
         y2="32"
         id="line22"
         style="fill:none;stroke:#b3b3b3;stroke-width:0.1;stroke-miterlimit:10" /><circle
         class="st2"
         cx="32"
         cy="32"
         r="21"
         id="circle24"
         style="fill:none;stroke:#b3b3b3;stroke-width:0.1;stroke-miterlimit:10" /></g></g><path
     d="m 6,38.949153 v -32 h 52 v 32 h 4 v -33 c 0,-1.7 -1.3,-3 -3,-3 H 5 c -1.7,0 -3,1.3 -3,3 v 33 z"
     id="path30"
     inkscape:connector-curvature="0"
     style="fill:#d8d8d8;fill-opacity:1" /><path
     d="m 2,40.949153 v 7 c 0,1.7 1.3,3 3,3 h 54 c 1.7,0 3,-1.3 3,-3 v -7 z m 30,6 c -1.1,0 -2,-0.9 -2,-2 0,-1.1 0.9,-2 2,-2 1.1,0 2,0.9 2,2 0,1.1 -0.9,2 -2,2 z"
     id="path32"
     inkscape:connector-curvature="0"
     style="fill:#d8d8d8;fill-opacity:1" /><rect
     x="8"
     y="8.949152"
     width="42"
     height="2"
     id="rect34"
     style="fill:#d8d8d8;fill-opacity:1" /><path
     d="m 8,12.949153 v 26 h 8 v -26 z m 6,12 h -4 v -2 h 4 z m 0,-4 h -4 v -2 h 4 z m 0,-4 h -4 v -2 h 4 z"
     id="path36"
     inkscape:connector-curvature="0"
     style="fill:#d8d8d8;fill-opacity:1" /><path
     d="m 18,12.949153 v 26 h 38 v -26 z m 11,22 h -3 c -1.7,0 -3,-1.3 -3,-3 v -3 c 0,-1.1 -0.9,-2 -2,-2 h -1 v -2 h 1 c 1.1,0 2,-0.9 2,-2 v -3 c 0,-1.7 1.3,-3 3,-3 h 3 v 2 h -3 c -0.6,0 -1,0.4 -1,1 v 3.8 c 0,0.9 -0.4,1.7 -1,2.2 0.6,0.6 1,1.4 1,2.2 v 3.8 c 0,0.6 0.4,1 1,1 h 3 z m 2,-7 c -1.1,0 -2,-0.9 -2,-2 0,-1.1 0.9,-2 2,-2 1.1,0 2,0.9 2,2 0,1.1 -0.9,2 -2,2 z m 6,0 c -1.1,0 -2,-0.9 -2,-2 0,-1.1 0.9,-2 2,-2 1.1,0 2,0.9 2,2 0,1.1 -0.9,2 -2,2 z m 6,0 c -1.1,0 -2,-0.9 -2,-2 0,-1.1 0.9,-2 2,-2 1.1,0 2,0.9 2,2 0,1.1 -0.9,2 -2,2 z m 11,-1 h -1 c -1.1,0 -2,0.9 -2,2 v 3 c 0,1.7 -1.3,3 -3,3 h -3 v -2 h 3 c 0.6,0 1,-0.4 1,-1 v -3.8 c 0,-0.9 0.4,-1.7 1,-2.2 -0.6,-0.6 -1,-1.4 -1,-2.2 v -3.8 c 0,-0.6 -0.4,-1 -1,-1 h -3 v -2 h 3 c 1.7,0 3,1.3 3,3 v 3 c 0,1.1 0.9,2 2,2 h 1 z"
     id="path38"
     inkscape:connector-curvature="0"
     style="fill:#d8d8d8;fill-opacity:1" /><rect
     x="52"
     y="8.949152"
     width="4"
     height="2"
     id="rect40"
     style="fill:#d8d8d8;fill-opacity:1" /><path
     d="m 43,56.949153 h -5 v -4 H 26 v 4 h -5 c -1.7,0 -3,1.3 -3,3 v 3 h 28 v -3 c 0,-1.7 -1.3,-3 -3,-3 z"
     id="path42"
     inkscape:connector-curvature="0"
     style="fill:#d8d8d8;fill-opacity:1" /></svg>