<?xml version="1.0" encoding="UTF-8" standalone="no"?>
<svg
   xmlns:dc="http://purl.org/dc/elements/1.1/"
   xmlns:cc="http://creativecommons.org/ns#"
   xmlns:rdf="http://www.w3.org/1999/02/22-rdf-syntax-ns#"
   xmlns:svg="http://www.w3.org/2000/svg"
   xmlns="http://www.w3.org/2000/svg"
   xmlns:sodipodi="http://sodipodi.sourceforge.net/DTD/sodipodi-0.dtd"
   xmlns:inkscape="http://www.inkscape.org/namespaces/inkscape"
   version="1.1"
   x="0px"
   y="0px"
   viewBox="0 0 64 64"
   xml:space="preserve"
   id="svg36"
   sodipodi:docname="noun_web design_1705788.svg"
   width="64"
   height="64"
   inkscape:version="0.92.3 (unknown)"><metadata
     id="metadata42"><rdf:RDF><cc:Work
         rdf:about=""><dc:format>image/svg+xml</dc:format><dc:type
           rdf:resource="http://purl.org/dc/dcmitype/StillImage" /><dc:title></dc:title></cc:Work></rdf:RDF></metadata><defs
     id="defs40" /><sodipodi:namedview
     pagecolor="#ffffff"
     bordercolor="#666666"
     borderopacity="1"
     objecttolerance="10"
     gridtolerance="10"
     guidetolerance="10"
     inkscape:pageopacity="0"
     inkscape:pageshadow="2"
     inkscape:window-width="1549"
     inkscape:window-height="845"
     id="namedview38"
     showgrid="false"
     inkscape:zoom="2.95"
     inkscape:cx="32"
     inkscape:cy="40"
     inkscape:window-x="51"
     inkscape:window-y="27"
     inkscape:window-maximized="1"
     inkscape:current-layer="svg36" /><path
     d="m 44,56.610169 h -6 v -6 H 26 v 6 h -6 c -1.1,0 -2,0.9 -2,2 v 4 h 28 v -4 c 0,-1.1 -0.9,-2 -2,-2 z"
     id="path2"
     inkscape:connector-curvature="0"
     style="fill:#d8d8d8;fill-opacity:1" /><path
     d="m 2,40.610169 v 6 c 0,1.1 0.9,2 2,2 h 56 c 1.1,0 2,-0.9 2,-2 v -6 z m 30,6 c -1.1,0 -2,-0.9 -2,-2 0,-1.1 0.9,-2 2,-2 1.1,0 2,0.9 2,2 0,1.1 -0.9,2 -2,2 z"
     id="path4"
     inkscape:connector-curvature="0"
     style="fill:#d8d8d8;fill-opacity:1" /><polygon
     points="36,28.6 36,21.4 32.4,25 "
     id="polygon6"
     transform="translate(0,0.610169)"
     style="fill:#d8d8d8;fill-opacity:1" /><polygon
     points="43.4,30 50.6,30 47,26.4 "
     id="polygon8"
     transform="translate(0,0.610169)"
     style="fill:#d8d8d8;fill-opacity:1" /><path
     d="m 22,38.610169 h 34 v -22 H 22 Z m 18,-20 h 14 v 14 H 40 Z m -16,0 h 14 v 14 H 24 Z m 0,16 h 30 v 2 H 24 Z"
     id="path10"
     inkscape:connector-curvature="0"
     style="fill:#d8d8d8;fill-opacity:1" /><polygon
     points="27.4,30 34.6,30 31,26.4 "
     id="polygon12"
     transform="translate(0,0.610169)"
     style="fill:#d8d8d8;fill-opacity:1" /><polygon
     points="26,21.4 26,28.6 29.6,25 "
     id="polygon14"
     transform="translate(0,0.610169)"
     style="fill:#d8d8d8;fill-opacity:1" /><polygon
     points="52,28.6 52,21.4 48.4,25 "
     id="polygon16"
     transform="translate(0,0.610169)"
     style="fill:#d8d8d8;fill-opacity:1" /><polygon
     points="42,21.4 42,28.6 45.6,25 "
     id="polygon18"
     transform="translate(0,0.610169)"
     style="fill:#d8d8d8;fill-opacity:1" /><polygon
     points="34.6,20 27.4,20 31,23.6 "
     id="polygon20"
     transform="translate(0,0.610169)"
     style="fill:#d8d8d8;fill-opacity:1" /><path
     d="m 8,38.610169 h 12 v -22 H 8 Z m 2,-20 h 8 v 2 h -8 z m 0,4 h 8 v 2 h -8 z m 0,4 h 8 v 2 h -8 z"
     id="path22"
     inkscape:connector-curvature="0"
     style="fill:#d8d8d8;fill-opacity:1" /><polygon
     points="50.6,20 43.4,20 47,23.6 "
     id="polygon24"
     transform="translate(0,0.610169)"
     style="fill:#d8d8d8;fill-opacity:1" /><path
     d="M 60,2.610169 H 4 c -1.1,0 -2,0.9 -2,2 v 34 h 1 1 2 v -32 h 52 v 32 h 2 1 1 v -34 c 0,-1.1 -0.9,-2 -2,-2 z"
     id="path26"
     inkscape:connector-curvature="0"
     style="fill:#d8d8d8;fill-opacity:1" /><rect
     x="8"
     y="8.6101704"
     width="36"
     height="6"
     id="rect28"
     style="fill:#d8d8d8;fill-opacity:1" /><path
     d="m 46,8.610169 v 6 h 10 v -6 z m 8,4 h -6 v -2 h 6 z"
     id="path30"
     inkscape:connector-curvature="0"
     style="fill:#d8d8d8;fill-opacity:1" /></svg>