<?xml version="1.0" encoding="UTF-8" standalone="no"?>
<svg
   xmlns:dc="http://purl.org/dc/elements/1.1/"
   xmlns:cc="http://creativecommons.org/ns#"
   xmlns:rdf="http://www.w3.org/1999/02/22-rdf-syntax-ns#"
   xmlns:svg="http://www.w3.org/2000/svg"
   xmlns="http://www.w3.org/2000/svg"
   xmlns:sodipodi="http://sodipodi.sourceforge.net/DTD/sodipodi-0.dtd"
   xmlns:inkscape="http://www.inkscape.org/namespaces/inkscape"
   version="1.1"
   x="0px"
   y="0px"
   viewBox="0 0 100 80"
   enable-background="new 0 0 100 100"
   xml:space="preserve"
   id="svg10"
   sodipodi:docname="noun_Game_1196631.svg"
   width="100"
   height="80"
   inkscape:version="0.92.3 (unknown)"><metadata
     id="metadata16"><rdf:RDF><cc:Work
         rdf:about=""><dc:format>image/svg+xml</dc:format><dc:type
           rdf:resource="http://purl.org/dc/dcmitype/StillImage" /><dc:title></dc:title></cc:Work></rdf:RDF></metadata><defs
     id="defs14" /><sodipodi:namedview
     pagecolor="#ffffff"
     bordercolor="#666666"
     borderopacity="1"
     objecttolerance="10"
     gridtolerance="10"
     guidetolerance="10"
     inkscape:pageopacity="0"
     inkscape:pageshadow="2"
     inkscape:window-width="1549"
     inkscape:window-height="845"
     id="namedview12"
     showgrid="false"
     inkscape:zoom="1.888"
     inkscape:cx="-42.690678"
     inkscape:cy="62.5"
     inkscape:window-x="51"
     inkscape:window-y="27"
     inkscape:window-maximized="1"
     inkscape:current-layer="svg10" /><g
     id="g4"
     transform="translate(0.52966098,-5.275424)"
     style="fill:#d8d8d8;fill-opacity:1"><path
       d="m 88.41,27.862 c -2.886,-4.489 -6.297,-7.59 -10.429,-9.48 -4.96,-2.271 -10.513,-2.467 -16.36,-0.569 -2.748,0.892 -5.437,2.239 -7.989,4.005 -0.339,0.234 -0.689,0.405 -1.06,0.526 V 9.75 h -5.145 v 12.596 c -0.369,-0.122 -0.723,-0.294 -1.061,-0.528 -2.554,-1.765 -5.241,-3.112 -7.988,-4.004 -5.85,-1.898 -11.399,-1.701 -16.36,0.568 -4.136,1.893 -7.547,4.994 -10.429,9.481 C 5.821,36.839 2.748,47.351 2.454,59.109 2.371,62.522 2.667,65.845 3,68.93 c 0.246,2.266 0.764,4.518 1.539,6.695 1.704,4.775 5.979,7.861 10.891,7.861 2.42,0 4.758,-0.75 6.753,-2.166 l 0.472,-0.333 c 1.318,-0.928 2.813,-1.979 4.161,-3.313 2.575,-2.55 5.118,-5.231 7.359,-7.595 l 1.478,-1.557 c 0.597,-0.627 0.973,-0.679 1.334,-0.679 4.226,0.002 21.796,0.002 26.031,0 0.36,0 0.732,0.052 1.326,0.677 l 1.48,1.559 c 2.375,2.504 4.83,5.093 7.36,7.596 1.341,1.326 2.829,2.375 4.155,3.309 l 0.468,0.329 c 2,1.42 4.338,2.171 6.762,2.172 h 10e-4 c 4.912,0 9.187,-3.086 10.891,-7.863 0.776,-2.178 1.294,-4.43 1.537,-6.692 0.335,-3.083 0.633,-6.406 0.545,-9.822 C 97.251,47.354 94.179,36.841 88.41,27.862 Z M 37.389,49.258 h -6.49 v 6.492 h -5.145 v -6.492 h -6.492 v -5.144 h 6.492 v -6.493 h 5.145 v 6.493 h 6.49 z m 30.789,0 h -5.566 v -5.144 h 5.566 z m 6.068,6.492 h -5.145 v -5.568 h 5.145 z m 0,-12.56 h -5.145 v -5.568 h 5.145 z m 6.492,6.068 H 75.17 v -5.144 h 5.568 z"
       id="path2"
       inkscape:connector-curvature="0"
       style="fill:#d8d8d8;fill-opacity:1" /></g></svg>