<?xml version="1.0" encoding="UTF-8" standalone="no"?>
<svg
   xmlns:dc="http://purl.org/dc/elements/1.1/"
   xmlns:cc="http://creativecommons.org/ns#"
   xmlns:rdf="http://www.w3.org/1999/02/22-rdf-syntax-ns#"
   xmlns:svg="http://www.w3.org/2000/svg"
   xmlns="http://www.w3.org/2000/svg"
   xmlns:sodipodi="http://sodipodi.sourceforge.net/DTD/sodipodi-0.dtd"
   xmlns:inkscape="http://www.inkscape.org/namespaces/inkscape"
   version="1.1"
   x="0px"
   y="0px"
   viewBox="0 0 95 85"
   enable-background="new 0 0 100 100"
   xml:space="preserve"
   id="svg12"
   sodipodi:docname="noun_renovation_1306672.svg"
   width="95"
   height="85"
   inkscape:version="0.92.3 (unknown)"><metadata
     id="metadata18"><rdf:RDF><cc:Work
         rdf:about=""><dc:format>image/svg+xml</dc:format><dc:type
           rdf:resource="http://purl.org/dc/dcmitype/StillImage" /><dc:title></dc:title></cc:Work></rdf:RDF></metadata><defs
     id="defs16" /><sodipodi:namedview
     pagecolor="#ffffff"
     bordercolor="#666666"
     borderopacity="1"
     objecttolerance="10"
     gridtolerance="10"
     guidetolerance="10"
     inkscape:pageopacity="0"
     inkscape:pageshadow="2"
     inkscape:window-width="1549"
     inkscape:window-height="845"
     id="namedview14"
     showgrid="false"
     inkscape:zoom="1.888"
     inkscape:cx="-42.161017"
     inkscape:cy="62.5"
     inkscape:window-x="51"
     inkscape:window-y="27"
     inkscape:window-maximized="1"
     inkscape:current-layer="svg12" /><polygon
     points="17.916,46.283 20.826,51.323 39.711,40.431 36.801,35.392 36.801,35.391 "
     id="polygon2"
     style="fill:#d8d8d8;fill-opacity:1"
     transform="translate(-3.1779661,-6.6313559)" /><path
     d="m 24.004034,8.469644 v 0 l -22.1820001,12.817 c 5.212,6.209 8.014,10.976 11.9210001,16.461 l 18.752,-10.797 c -2.76,-6.147 -5.534,-10.968 -8.491,-18.481 z"
     id="path4"
     style="fill:#d8d8d8;fill-opacity:1"
     inkscape:connector-curvature="0" /><path
     d="m 86.848034,22.811644 -5.88,7.412 0.266,4.149 -11.379,19.715 c -1.778,-1.024 -3.59,-1.971 -3.933,-1.377 -0.324,0.562 -0.219,1.152 0.21,1.764 -0.899,0.212 -1.691,0.798 -2.34,1.92 l -4.917,8.52 c -0.003,-0.778 -0.012,-1.546 -0.011,-2.335 0.004,-7.041 0.123,-14.607 -0.564,-22.043 -0.158,-1.13 -0.352,-2.177 -0.687,-3.391 -0.436,-1.558 -0.454,-2.018 -0.547,-12.147 -0.105,-11.5 -0.027,-12.796 0.857,-13.957 0.733,-0.962 1.925,-1.524 3.324,-1.565 0.946,-0.052 1.387,0.082 2.434,0.625 1.039,0.535 1.508,0.658 2.533,0.659 0.918,-10e-4 1.335,-0.093 1.533,-0.33 0.188,-0.227 0.299,-1.161 0.354,-3.031 0.101,-3.459 -0.022,-3.718 -1.776,-3.718 -0.764,0 -1.541,0.155 -2.168,0.428 -1.602,0.695 -2.952,0.717 -4.718,0.082 -0.962,-0.345 -1.856,-0.52 -2.921,-0.537 l -10e-4,-10e-4 c -7.756,0.258 -13.105,3.682 -17.092,11.877 -0.005,0 -0.012,0.051 -0.017,0.051 -0.173,0.412 -0.279,0.836 -0.027,0.902 0.702,0.186 1.226,-0.242 3.219,-2.611 2.721,-3.232 4.017,-4.086 6.224,-4.099 1.26,0 1.409,0.082 1.919,1.239 0.324,0.732 0.466,1.795 0.691,4.945 0.683,9.532 0.569,19.188 -0.266,22.215 -0.265,0.961 -0.416,1.704 -0.453,2.247 -0.67,9.965 0.002,21.176 -0.293,32.188 -5.578,-8.416 -14.016,-19.301 -15.793,-25.645 1.604,-5.046 4.314,-9.208 3.429,-10.626 l -18.983,10.946 c 0.894,1.483 5.798,1.334 11.119,2.456 5.087,5.119 10.464,19.546 15.151,28.505 0.674,1.289 3.433,1.057 4.498,0.443 0.104,-0.062 0.21,-0.144 0.321,-0.237 -0.054,0.811 -0.114,1.618 -0.183,2.423 0.103,1.244 0.34,1.529 1.564,1.903 0.89,0.272 5.759,0.423 6.583,0.206 1.568,-0.412 1.994,-0.999 1.814,-2.45 2.064,0.753 3.891,0.591 5.155,-1.599 l 9.442,-16.313 c 0.648,-1.122 0.729,-2.119 0.459,-3.004 0.744,0.062 1.318,-0.107 1.643,-0.675 0.394,-0.646 -1.54,-1.854 -3.324,-2.859 -0.022,0 -0.044,-0.052 -0.066,-0.052 l 11.361,-19.682 3.735,-1.849 3.475,-8.795 z m -38.03,54.135 c -0.541,0.31 -1.23,0.124 -1.542,-0.418 -0.196,-0.335 -0.192,-0.735 -0.034,-1.062 0.096,-0.201 0.245,-0.355 0.448,-0.475 0.169,-0.098 0.354,-0.149 0.536,-0.159 l 0.001,0.005 c 0.4,0 0.791,0.191 1.007,0.565 0.313,0.542 0.126,1.231 -0.416,1.544 z m 10.373,-2.256 h -0.006 l -0.211,0.371 c -0.057,0.099 -0.125,0.195 -0.198,0.278 -0.037,0.052 -0.076,0.077 -0.116,0.113 -0.039,0.052 -0.08,0.072 -0.122,0.103 -0.043,0.052 -0.088,0.062 -0.133,0.083 -0.059,0.051 -0.125,0.066 -0.188,0.093 -0.082,0.051 -0.163,0.066 -0.25,0.092 -0.152,0.052 -0.314,0.057 -0.475,0.052 -0.054,0 -0.107,0 -0.16,0 -0.109,0 -0.215,-0.052 -0.321,-0.066 -0.053,0 -0.104,-0.052 -0.155,-0.062 -0.051,-0.051 -0.099,-0.051 -0.149,-0.077 l -0.249,-0.144 c -0.15,-0.082 -0.28,-0.196 -0.393,-0.314 -0.037,-0.052 -0.072,-0.078 -0.104,-0.124 -0.067,-0.083 -0.124,-0.181 -0.172,-0.278 -0.023,-0.051 -0.042,-0.093 -0.062,-0.144 -0.019,-0.052 -0.036,-0.098 -0.05,-0.15 -0.014,-0.051 -0.023,-0.098 -0.033,-0.159 -0.018,-0.104 -0.024,-0.217 -0.021,-0.319 0.002,-0.052 0.004,-0.104 0.011,-0.165 0.014,-0.104 0.042,-0.211 0.077,-0.314 0.036,-0.104 0.081,-0.211 0.139,-0.31 l 0.266,-0.458 9.254,-16.036 c 0.23,-0.402 0.624,-0.67 1.034,-0.779 0.154,-0.052 0.316,-0.057 0.477,-0.052 v 0.009 c 0.266,0 0.535,0.078 0.785,0.222 l 0.216,0.124 c 0.8,0.463 1.075,1.49 0.613,2.29 z m 14.266,-13.282 -9.525,16.496 c -0.462,0.8 -1.49,1.075 -2.29,0.614 l -0.216,-0.124 c -0.8,-0.464 -1.07,-1.469 -0.608,-2.268 l 9.52,-16.49 c 0.23,-0.401 0.591,-0.686 1.001,-0.797 0.104,-0.051 0.209,-0.051 0.315,-0.051 v 0.002 c 0.32,0 0.651,0.062 0.951,0.236 l 0.244,0.114 c 0.799,0.464 1.069,1.469 0.608,2.268 z"
     id="path6"
     style="fill:#d8d8d8;fill-opacity:1"
     inkscape:connector-curvature="0" /></svg>