<?xml version="1.0" encoding="UTF-8" standalone="no"?>
<svg
   xmlns:dc="http://purl.org/dc/elements/1.1/"
   xmlns:cc="http://creativecommons.org/ns#"
   xmlns:rdf="http://www.w3.org/1999/02/22-rdf-syntax-ns#"
   xmlns:svg="http://www.w3.org/2000/svg"
   xmlns="http://www.w3.org/2000/svg"
   xmlns:sodipodi="http://sodipodi.sourceforge.net/DTD/sodipodi-0.dtd"
   xmlns:inkscape="http://www.inkscape.org/namespaces/inkscape"
   data-name="Layer 1"
   viewBox="0 0 85.67 83.5375"
   x="0px"
   y="0px"
   version="1.1"
   id="svg44"
   sodipodi:docname="noun_Music_1300567.svg"
   width="85.669998"
   height="83.537498"
   inkscape:version="0.92.3 (unknown)">
  <metadata
     id="metadata50">
    <rdf:RDF>
      <cc:Work
         rdf:about="">
        <dc:format>image/svg+xml</dc:format>
        <dc:type
           rdf:resource="http://purl.org/dc/dcmitype/StillImage" />
        <dc:title>Untitled-16</dc:title>
      </cc:Work>
    </rdf:RDF>
  </metadata>
  <defs
     id="defs48" />
  <sodipodi:namedview
     pagecolor="#ffffff"
     bordercolor="#666666"
     borderopacity="1"
     objecttolerance="10"
     gridtolerance="10"
     guidetolerance="10"
     inkscape:pageopacity="0"
     inkscape:pageshadow="2"
     inkscape:window-width="1549"
     inkscape:window-height="845"
     id="namedview46"
     showgrid="false"
     inkscape:zoom="4.7419315"
     inkscape:cx="-4.1669284"
     inkscape:cy="46.661321"
     inkscape:window-x="51"
     inkscape:window-y="27"
     inkscape:window-maximized="1"
     inkscape:current-layer="svg44" />
  <title
     id="title2">Untitled-16</title>
  <path
     d="m 52.761499,67.466077 h -18.38 a 3.065,3.065 0 0 0 0,6.13 h 18.38 a 3.06,3.06 0 0 0 0,-6.12 z"
     id="path4"
     style="fill:#d8d8d8;fill-opacity:1"
     inkscape:connector-curvature="0" />
  <path
     d="M 24.171499,51.136077 H 5.8014989 a 3.065,3.065 0 0 0 0,6.13 H 24.171499 a 3.06,3.06 0 0 0 0,-6.12 z"
     id="path6"
     style="fill:#d8d8d8;fill-opacity:1"
     inkscape:connector-curvature="0" />
  <path
     d="M 24.171499,42.946077 H 5.8014989 a 3.065,3.065 0 0 0 0,6.13 H 24.171499 a 3.06,3.06 0 0 0 0,-6.12 z"
     id="path8"
     style="fill:#d8d8d8;fill-opacity:1"
     inkscape:connector-curvature="0" />
  <path
     d="m 52.761499,75.636077 h -18.38 a 3.065,3.065 0 0 0 0,6.13 h 18.38 a 3.06,3.06 0 0 0 0,-6.12 z"
     id="path10"
     style="fill:#d8d8d8;fill-opacity:1"
     inkscape:connector-curvature="0" />
  <path
     d="M 24.171499,75.636077 H 5.8014989 a 3.065,3.065 0 0 0 0,6.13 H 24.171499 a 3.06,3.06 0 0 0 0,-6.12 z"
     id="path12"
     style="fill:#d8d8d8;fill-opacity:1"
     inkscape:connector-curvature="0" />
  <path
     d="m 62.971499,65.426077 h 18.37 a 3.06,3.06 0 0 0 0,-6.12 h -18.37 a 3.065,3.065 0 0 0 0,6.13 z"
     id="path14"
     style="fill:#d8d8d8;fill-opacity:1"
     inkscape:connector-curvature="0" />
  <path
     d="m 52.761499,59.296077 h -18.38 a 3.065,3.065 0 0 0 0,6.13 h 18.38 a 3.06,3.06 0 0 0 0,-6.12 z"
     id="path16"
     style="fill:#d8d8d8;fill-opacity:1"
     inkscape:connector-curvature="0" />
  <path
     d="M 24.171499,59.296077 H 5.8014989 a 3.065,3.065 0 0 0 0,6.13 H 24.171499 a 3.06,3.06 0 0 0 0,-6.12 z"
     id="path18"
     style="fill:#d8d8d8;fill-opacity:1"
     inkscape:connector-curvature="0" />
  <path
     d="M 24.171499,67.466077 H 5.8014989 a 3.065,3.065 0 0 0 0,6.13 H 24.171499 a 3.06,3.06 0 0 0 0,-6.12 z"
     id="path20"
     style="fill:#d8d8d8;fill-opacity:1"
     inkscape:connector-curvature="0" />
  <path
     d="m 52.761499,10.296075 h -18.38 a 3.0650002,3.0650002 0 0 0 0,6.130001 h 18.38 a 3.0600003,3.0600003 0 0 0 0,-6.120001 z"
     id="path22"
     style="fill:#d8d8d8;fill-opacity:1"
     inkscape:connector-curvature="0" />
  <path
     d="m 81.341499,75.636077 h -18.37 a 3.065,3.065 0 0 0 0,6.13 h 18.37 a 3.06,3.06 0 0 0 0,-6.12 z"
     id="path24"
     style="fill:#d8d8d8;fill-opacity:1"
     inkscape:connector-curvature="0" />
  <path
     d="m 52.761499,2.1360757 h -18.38 a 3.0650002,3.0650002 0 0 0 0,6.1300003 h 18.38 a 3.0600002,3.0600002 0 0 0 0,-6.1200003 z"
     id="path26"
     style="fill:#d8d8d8;fill-opacity:1"
     inkscape:connector-curvature="0" />
  <path
     d="m 81.341499,67.466077 h -18.37 a 3.065,3.065 0 0 0 0,6.13 h 18.37 a 3.06,3.06 0 0 0 0,-6.12 z"
     id="path28"
     style="fill:#d8d8d8;fill-opacity:1"
     inkscape:connector-curvature="0" />
  <path
     d="m 52.761499,42.946077 h -18.38 a 3.065,3.065 0 0 0 0,6.13 h 18.38 a 3.06,3.06 0 0 0 0,-6.12 z"
     id="path30"
     style="fill:#d8d8d8;fill-opacity:1"
     inkscape:connector-curvature="0" />
  <path
     d="m 52.761499,51.136077 h -18.38 a 3.065,3.065 0 0 0 0,6.13 h 18.38 a 3.06,3.06 0 0 0 0,-6.12 z"
     id="path32"
     style="fill:#d8d8d8;fill-opacity:1"
     inkscape:connector-curvature="0" />
  <path
     d="m 52.761499,18.466076 h -18.38 a 3.0650005,3.0650005 0 1 0 0,6.130001 h 18.38 a 3.0650005,3.0650005 0 0 0 0,-6.130001 z"
     id="path34"
     style="fill:#d8d8d8;fill-opacity:1"
     inkscape:connector-curvature="0" />
  <path
     d="m 52.761499,34.796077 h -18.38 a 3.065,3.065 0 0 0 0,6.13 h 18.38 a 3.06,3.06 0 0 0 0,-6.12 z"
     id="path36"
     style="fill:#d8d8d8;fill-opacity:1"
     inkscape:connector-curvature="0" />
  <path
     d="m 52.761499,26.636077 h -18.38 a 3.065,3.065 0 0 0 0,6.13 h 18.38 a 3.06,3.06 0 0 0 0,-6.12 z"
     id="path38"
     style="fill:#d8d8d8;fill-opacity:1"
     inkscape:connector-curvature="0" />
</svg>
