<?xml version="1.0" encoding="UTF-8" standalone="no"?>
<svg
   xmlns:dc="http://purl.org/dc/elements/1.1/"
   xmlns:cc="http://creativecommons.org/ns#"
   xmlns:rdf="http://www.w3.org/1999/02/22-rdf-syntax-ns#"
   xmlns:svg="http://www.w3.org/2000/svg"
   xmlns="http://www.w3.org/2000/svg"
   xmlns:sodipodi="http://sodipodi.sourceforge.net/DTD/sodipodi-0.dtd"
   xmlns:inkscape="http://www.inkscape.org/namespaces/inkscape"
   version="1.1"
   x="0px"
   y="0px"
   viewBox="0 0 90 90"
   enable-background="new 0 0 100 100"
   xml:space="preserve"
   id="svg16"
   sodipodi:docname="noun_AI_1235933.svg"
   width="90"
   height="90"
   inkscape:version="0.92.3 (unknown)"><metadata
     id="metadata22"><rdf:RDF><cc:Work
         rdf:about=""><dc:format>image/svg+xml</dc:format><dc:type
           rdf:resource="http://purl.org/dc/dcmitype/StillImage" /><dc:title></dc:title></cc:Work></rdf:RDF></metadata><defs
     id="defs20" /><sodipodi:namedview
     pagecolor="#ffffff"
     bordercolor="#666666"
     borderopacity="1"
     objecttolerance="10"
     gridtolerance="10"
     guidetolerance="10"
     inkscape:pageopacity="0"
     inkscape:pageshadow="2"
     inkscape:window-width="1549"
     inkscape:window-height="845"
     id="namedview18"
     showgrid="false"
     inkscape:zoom="1.888"
     inkscape:cx="50"
     inkscape:cy="62.5"
     inkscape:window-x="51"
     inkscape:window-y="27"
     inkscape:window-maximized="1"
     inkscape:current-layer="svg16" /><g
     id="g10"
     transform="translate(-5.8262712,-5.338983)"
     style="fill:#d8d8d8;fill-opacity:1"><path
       d="m 53.968,60.61 v 3.375 c 0,0.562 0.447,1.018 1,1.018 0.553,0 1,-0.456 1,-1.018 V 60.61 h 2.363 c 1.497,0 2.716,-1.241 2.716,-2.766 v -2.401 h 3.314 c 0.553,0 1,-0.456 1,-1.018 0,-0.562 -0.447,-1.018 -1,-1.018 h -3.314 v -2.296 h 3.314 c 0.553,0 1,-0.456 1,-1.018 0,-0.562 -0.447,-1.018 -1,-1.018 H 61.047 V 46.78 h 3.314 c 0.553,0 1,-0.456 1,-1.018 0,-0.562 -0.447,-1.018 -1,-1.018 h -3.314 v -2.279 c 0,-1.525 -1.219,-2.766 -2.716,-2.766 h -2.363 v -3.375 c 0,-0.562 -0.447,-1.018 -1,-1.018 -0.553,0 -1,0.456 -1,1.018 V 39.7 h -2.255 v -3.375 c 0,-0.562 -0.447,-1.018 -1,-1.018 -0.553,0 -1,0.456 -1,1.018 V 39.7 h -2.254 v -3.375 c 0,-0.562 -0.447,-1.018 -1,-1.018 -0.553,0 -1,0.456 -1,1.018 V 39.7 h -2.362 c -1.498,0 -2.717,1.241 -2.717,2.766 v 2.836 h -3.314 c -0.553,0 -1,0.456 -1,1.018 0,0.562 0.447,1.018 1,1.018 h 3.314 v 2.294 h -3.314 c -0.553,0 -1,0.456 -1,1.018 0,0.562 0.447,1.018 1,1.018 h 3.314 v 2.296 h -3.314 c -0.553,0 -1,0.456 -1,1.018 0,0.562 0.447,1.018 1,1.018 h 3.314 v 1.843 c 0,1.525 1.219,2.766 2.717,2.766 h 2.362 v 3.375 c 0,0.562 0.447,1.018 1,1.018 0.553,0 1,-0.456 1,-1.018 V 60.61 h 2.254 v 3.375 c 0,0.562 0.447,1.018 1,1.018 0.553,0 1,-0.456 1,-1.018 V 60.61 Z M 42.38,57.844 V 42.465 c 0,-0.402 0.321,-0.73 0.717,-0.73 h 15.234 c 0.395,0 0.716,0.328 0.716,0.73 v 15.379 c 0,0.402 -0.321,0.73 -0.716,0.73 H 43.097 c -0.396,0 -0.717,-0.327 -0.717,-0.73 z"
       id="path2"
       inkscape:connector-curvature="0"
       style="fill:#d8d8d8;fill-opacity:1" /><path
       d="M 57.428,56.082 V 44.447 c 0,-0.562 -0.447,-1.018 -1,-1.018 H 44.999 c -0.553,0 -1,0.456 -1,1.018 v 11.635 c 0,0.562 0.447,1.018 1,1.018 h 11.429 c 0.552,0 1,-0.456 1,-1.018 z m -2,-1.019 h -9.429 v -9.599 h 9.429 z"
       id="path4"
       inkscape:connector-curvature="0"
       style="fill:#d8d8d8;fill-opacity:1" /><path
       d="M 90.651,64.883 90.642,52.331 c 0,-0.562 -0.448,-1.017 -1,-1.017 h -5.636 c 0.094,-0.536 0.146,-1.088 0.146,-1.652 0,-0.047 -0.005,-0.094 -0.006,-0.141 0,-0.01 0.006,-0.019 0.006,-0.03 0,-3.709 -2.189,-6.885 -5.278,-8.19 -0.497,-0.222 -1.016,-0.401 -1.556,-0.521 1.41,-1.639 2.207,-3.773 2.207,-6.064 0,-0.611 -0.06,-1.208 -0.17,-1.786 h 6.328 c 0.553,0 1,-0.456 1,-1.018 V 18.167 c 1.67,-0.449 2.916,-1.984 2.924,-3.823 0.008,-2.195 -1.741,-3.989 -3.911,-3.999 -2.149,0 -3.906,1.78 -3.915,3.969 -0.007,1.843 1.23,3.388 2.902,3.847 v 12.732 h -5.971 c -1.04,-2.344 -2.997,-4.146 -5.39,-4.886 L 73.31,18.319 c 1.671,-0.449 2.917,-1.984 2.925,-3.822 0.008,-2.196 -1.741,-3.991 -3.912,-4 -2.15,0 -3.905,1.781 -3.913,3.969 -0.005,1.064 0.398,2.066 1.134,2.82 0.495,0.508 1.105,0.848 1.767,1.027 l 0.012,7.343 c -0.144,-0.007 -0.285,-0.023 -0.431,-0.023 -0.523,0 -1.046,0.057 -1.562,0.159 -0.305,-4.58 -3.936,-8.212 -8.366,-8.212 -0.024,0 -0.046,0.013 -0.069,0.014 -0.096,-0.003 -0.189,-0.014 -0.285,-0.014 -4.6,0 -8.634,4.521 -8.634,9.675 v 5.614 c 0,0.562 0.447,1.018 1,1.018 0.553,0 1,-0.456 1,-1.018 v -5.614 c 0,-4.07 3.1,-7.639 6.634,-7.639 3.658,0 6.635,3.16 6.635,7.044 0,0.113 -0.009,0.224 -0.016,0.334 L 67.221,27.1 c -0.009,0.13 0.015,0.255 0.053,0.375 -0.483,3.239 -3.125,5.727 -6.31,5.727 -0.553,0 -1,0.456 -1,1.018 0,0.562 0.447,1.018 1,1.018 4.137,0 7.576,-3.165 8.264,-7.311 0.551,-0.154 1.106,-0.259 1.665,-0.259 3.657,0 6.633,3.161 6.633,7.045 0,2.507 -1.219,4.771 -3.261,6.055 -0.021,0.013 -0.034,0.034 -0.054,0.049 -3.894,0.766 -6.851,4.359 -6.851,8.671 0,0.562 0.447,1.018 1,1.018 0.553,0 1,-0.456 1,-1.018 0,-3.745 2.869,-6.792 6.396,-6.792 0.843,0 1.646,0.178 2.382,0.494 2.358,1.082 4.014,3.574 4.014,6.47 0,3.883 -2.976,7.043 -6.634,7.043 -0.177,0 -0.351,-0.013 -0.523,-0.028 -0.452,-0.049 -0.884,0.241 -1.033,0.685 -0.148,0.442 0.019,0.931 0.405,1.185 1.927,1.263 3.088,3.423 3.146,5.804 -0.02,0.08 -0.048,0.157 -0.048,0.244 0,3.747 -2.87,6.794 -6.397,6.794 -3.526,0 -6.395,-3.048 -6.395,-6.794 0,-0.562 -0.447,-1.018 -1,-1.018 -0.553,0 -1,0.456 -1,1.018 0,3.299 1.731,6.177 4.286,7.692 0.049,0.166 0.094,0.308 0.134,0.429 0.118,0.365 0.15,0.463 0.15,0.932 0,3.884 -2.977,7.045 -6.635,7.045 -3.658,0 -6.634,-3.161 -6.634,-7.045 0,-0.053 -0.021,-0.098 -0.029,-0.148 0.008,-0.05 0.029,-0.095 0.029,-0.148 v -5.36 c 0,-0.562 -0.447,-1.018 -1,-1.018 -0.553,0 -1,0.456 -1,1.018 v 5.36 c 0,0.053 0.021,0.098 0.029,0.148 -0.008,0.05 -0.029,0.095 -0.029,0.148 0,4.351 2.926,7.993 6.815,8.875 v 3.324 c 0,0.562 0.447,1.018 0.999,1.018 l 15.422,0.01 c 0.45,1.696 1.963,2.956 3.767,2.956 h 0.013 c 2.157,-0.01 3.906,-1.804 3.898,-4 -0.009,-2.188 -1.765,-3.967 -3.928,-3.967 -1.808,0.008 -3.314,1.275 -3.755,2.976 l -14.416,-0.01 v -2.11 c 4.677,-0.103 8.453,-4.128 8.453,-9.071 0,-0.068 -0.001,-0.133 -0.002,-0.195 0.54,0.11 1.092,0.165 1.65,0.165 4.76,0 8.633,-4.072 8.633,-9.079 0,-2.256 -0.78,-4.373 -2.161,-6.007 2.704,-0.622 4.935,-2.582 6.039,-5.182 h 5.24 l 0.008,11.524 c -1.669,0.449 -2.914,1.983 -2.922,3.821 -0.008,2.196 1.74,3.991 3.896,4 h 0.015 c 2.149,0 3.906,-1.781 3.915,-3.971 0.009,-1.837 -1.225,-3.379 -2.902,-3.84 z m -6.87,-50.56 c 0.005,-1.07 0.863,-1.941 1.92,-1.941 1.055,0.004 1.91,0.882 1.906,1.955 -0.005,1.07 -0.862,1.94 -1.913,1.94 v 0.387 c -0.001,0 -0.003,-0.001 -0.004,-0.001 l -0.003,-0.386 c -1.054,-0.005 -1.91,-0.881 -1.906,-1.954 z m -13.37,0.151 c 0.004,-1.07 0.862,-1.941 1.918,-1.941 1.056,0.004 1.911,0.882 1.907,1.956 -0.005,1.069 -0.863,1.939 -1.915,1.939 v 0.002 c -0.002,0 -0.005,-0.001 -0.007,-0.001 v -10e-4 c -0.511,-0.002 -0.99,-0.206 -1.35,-0.575 -0.359,-0.369 -0.555,-0.859 -0.553,-1.379 z m 8.566,69.423 c 1.051,0 1.908,0.871 1.913,1.939 0.004,1.074 -0.852,1.952 -1.905,1.956 l -0.006,1.018 v -1.018 c -1.052,0 -1.91,-0.871 -1.915,-1.94 -0.004,-1.073 0.851,-1.95 1.913,-1.955 z M 89.641,70.659 v 1.018 l -0.007,-1.018 c -1.054,-0.004 -1.908,-0.882 -1.904,-1.956 0.005,-1.069 0.861,-1.938 1.919,-1.938 1.055,0.004 1.91,0.88 1.907,1.952 -0.005,1.071 -0.864,1.942 -1.915,1.942 z"
       id="path6"
       inkscape:connector-curvature="0"
       style="fill:#d8d8d8;fill-opacity:1" /><path
       d="m 49.354,66.945 c -0.553,0 -1,0.456 -1,1.018 v 5.36 c 0,0.052 0.021,0.098 0.029,0.148 -0.008,0.05 -0.029,0.096 -0.029,0.148 0,3.884 -2.976,7.045 -6.634,7.045 -3.658,0 -6.635,-3.161 -6.635,-7.045 0,-0.468 0.032,-0.566 0.15,-0.932 0.04,-0.121 0.085,-0.263 0.134,-0.429 2.555,-1.516 4.286,-4.393 4.286,-7.692 0,-0.562 -0.447,-1.018 -1,-1.018 -0.553,0 -1,0.456 -1,1.018 0,3.747 -2.868,6.794 -6.395,6.794 -3.527,0 -6.397,-3.048 -6.397,-6.794 0,-0.086 -0.028,-0.164 -0.048,-0.244 0.059,-2.381 1.22,-4.541 3.146,-5.804 0.387,-0.253 0.554,-0.742 0.405,-1.185 -0.148,-0.444 -0.578,-0.728 -1.033,-0.685 -0.173,0.015 -0.347,0.028 -0.523,0.028 -3.658,0 -6.634,-3.16 -6.634,-7.043 0,-2.896 1.655,-5.388 4.014,-6.47 0.736,-0.315 1.54,-0.494 2.382,-0.494 3.527,0 6.396,3.047 6.396,6.792 0,0.562 0.447,1.018 1,1.018 0.553,0 1,-0.456 1,-1.018 0,-4.312 -2.958,-7.906 -6.851,-8.672 -0.02,-0.014 -0.033,-0.035 -0.054,-0.048 -2.042,-1.285 -3.261,-3.548 -3.261,-6.055 0,-3.884 2.976,-7.045 6.633,-7.045 0.559,0 1.114,0.105 1.665,0.259 0.688,4.146 4.127,7.311 8.264,7.311 0.553,0 1,-0.456 1,-1.018 0,-0.562 -0.447,-1.018 -1,-1.018 -3.186,0 -5.826,-2.487 -6.31,-5.727 0.038,-0.12 0.062,-0.245 0.053,-0.375 l -0.008,-0.106 c -0.007,-0.11 -0.016,-0.221 -0.016,-0.334 0,-3.884 2.977,-7.044 6.635,-7.044 3.534,0 6.634,3.569 6.634,7.639 v 5.614 c 0,0.562 0.447,1.018 1,1.018 0.553,0 1,-0.456 1,-1.018 v -5.614 c 0,-4.46 -3.021,-8.439 -6.815,-9.433 v -3.724 c 0,-0.562 -0.447,-1.018 -0.999,-1.018 l -11.423,-0.01 c -0.45,-1.696 -1.964,-2.956 -3.778,-2.956 -2.157,0.009 -3.906,1.803 -3.898,4 0.009,2.188 1.765,3.967 3.913,3.967 h 0.015 c 1.808,-0.008 3.314,-1.275 3.755,-2.976 l 10.416,0.009 v 2.474 c -0.034,0 -0.068,0.004 -0.104,0.005 -0.024,-10e-4 -0.045,-0.014 -0.069,-0.014 -4.431,0 -8.062,3.632 -8.366,8.212 -0.517,-0.103 -1.039,-0.159 -1.562,-0.159 -4.76,0 -8.633,4.074 -8.633,9.081 0,0.208 0.014,0.415 0.027,0.62 H 14.816 V 23.978 c 1.672,-0.459 2.909,-2.004 2.902,-3.848 -0.009,-2.188 -1.766,-3.968 -3.928,-3.968 -2.157,0.01 -3.906,1.804 -3.898,4 0.008,1.838 1.254,3.374 2.924,3.822 v 12.341 c 0,0.562 0.447,1.018 1,1.018 h 9.365 c 0.365,1.264 0.984,2.426 1.829,3.408 -0.538,0.12 -1.056,0.298 -1.552,0.519 -3.091,1.304 -5.282,4.481 -5.282,8.192 0,0.011 0.006,0.02 0.006,0.03 -10e-4,0.047 -0.006,0.094 -0.006,0.141 0,0.314 0.02,0.624 0.05,0.931 h -2.067 c -0.401,-1.758 -1.941,-3.079 -3.801,-3.087 -2.149,0 -3.906,1.78 -3.915,3.971 -0.007,2.195 1.743,3.988 3.899,3.996 h 0.017 c 1.762,0 3.242,-1.205 3.728,-2.843 h 2.567 c 0.976,2.957 3.361,5.225 6.311,5.903 -1.381,1.634 -2.161,3.751 -2.161,6.007 0,5.006 3.873,9.079 8.633,9.079 0.559,0 1.11,-0.055 1.65,-0.165 -0.001,0.062 -0.002,0.126 -0.002,0.195 0,0.213 0.017,0.422 0.03,0.631 l -6.387,-0.004 c -0.013,0 -0.023,-0.007 -0.036,-0.007 -0.013,0 -0.023,0.007 -0.036,0.007 L 16.614,74.24 c -0.45,-1.694 -1.963,-2.952 -3.777,-2.952 -2.156,0.008 -3.906,1.8 -3.899,3.997 0.009,2.188 1.766,3.969 3.915,3.969 h 0.015 c 1.808,-0.008 3.312,-1.276 3.753,-2.978 l 9.072,0.006 v 5.865 c -1.726,0.409 -3.024,1.977 -3.032,3.855 -0.008,2.196 1.741,3.991 3.9,4 h 0.012 c 2.15,0 3.905,-1.781 3.913,-3.969 0.005,-1.064 -0.398,-2.066 -1.134,-2.82 -0.467,-0.479 -1.038,-0.804 -1.659,-0.993 v -5.937 l 5.774,0.004 c 1.086,3.709 4.375,6.413 8.253,6.413 4.761,0 8.634,-4.074 8.634,-9.081 0,-0.052 -0.021,-0.098 -0.029,-0.148 0.008,-0.05 0.029,-0.096 0.029,-0.148 v -5.36 c 0,-0.562 -0.448,-1.018 -1,-1.018 z M 27.359,16.019 27.352,17.037 v -1.018 c -1.051,0 -1.908,-0.87 -1.913,-1.939 -0.004,-1.074 0.852,-1.952 1.911,-1.956 1.052,0 1.91,0.871 1.915,1.94 0.005,1.074 -0.851,1.951 -1.906,1.955 z m -15.466,4.135 c -0.004,-1.074 0.852,-1.952 1.911,-1.956 1.052,0 1.91,0.871 1.915,1.94 0.004,1.074 -0.852,1.951 -1.906,1.955 v 0.001 c -0.002,0 -0.005,10e-4 -0.007,10e-4 v -0.002 c -1.051,0.001 -1.909,-0.87 -1.913,-1.939 z m 0.466,33.253 v 1.018 L 12.35,53.407 c -1.055,-0.004 -1.91,-0.88 -1.907,-1.952 0.005,-1.071 0.863,-1.942 1.922,-1.942 1.054,0.004 1.908,0.882 1.904,1.956 -0.004,1.069 -0.861,1.938 -1.91,1.938 z m 16.126,32.618 c -0.004,1.07 -0.862,1.941 -1.913,1.941 v 1.018 l -0.005,-1.018 c -1.056,-0.004 -1.911,-0.882 -1.907,-1.956 0.005,-1.069 0.863,-1.939 1.922,-1.939 0.511,0.002 0.99,0.206 1.35,0.575 0.359,0.369 0.555,0.858 0.553,1.379 z m -15.626,-8.808 -0.007,1.018 v -1.018 c -1.052,0 -1.91,-0.872 -1.915,-1.94 -0.003,-1.073 0.853,-1.95 1.916,-1.954 1.049,0 1.905,0.869 1.91,1.937 0.005,1.074 -0.85,1.952 -1.904,1.957 z"
       id="path8"
       inkscape:connector-curvature="0"
       style="fill:#d8d8d8;fill-opacity:1" /></g></svg>