<?xml version="1.0" encoding="UTF-8" standalone="no"?>
<svg
   xmlns:dc="http://purl.org/dc/elements/1.1/"
   xmlns:cc="http://creativecommons.org/ns#"
   xmlns:rdf="http://www.w3.org/1999/02/22-rdf-syntax-ns#"
   xmlns:svg="http://www.w3.org/2000/svg"
   xmlns="http://www.w3.org/2000/svg"
   xmlns:sodipodi="http://sodipodi.sourceforge.net/DTD/sodipodi-0.dtd"
   xmlns:inkscape="http://www.inkscape.org/namespaces/inkscape"
   viewBox="0 0 500 200"
   version="1.1"
   id="svg8"
   sodipodi:docname="careerTimelinetest2.svg"
   inkscape:version="0.92.3 (unknown)">
  <sodipodi:namedview
     pagecolor="#ffffff"
     bordercolor="#666666"
     borderopacity="1"
     objecttolerance="10"
     gridtolerance="10"
     guidetolerance="10"
     inkscape:pageopacity="0"
     inkscape:pageshadow="2"
     inkscape:window-width="1549"
     inkscape:window-height="845"
     id="namedview855"
     showgrid="false"
     inkscape:zoom="2.06"
     inkscape:cx="187.62136"
     inkscape:cy="100"
     inkscape:window-x="51"
     inkscape:window-y="27"
     inkscape:window-maximized="1"
     inkscape:current-layer="svg8" />
  <defs
     id="defs2" />
  <metadata
     id="metadata5">
    <rdf:RDF>
      <cc:Work
         rdf:about="">
        <dc:format>image/svg+xml</dc:format>
        <dc:type
           rdf:resource="http://purl.org/dc/dcmitype/StillImage" />
        <dc:title></dc:title>
      </cc:Work>
    </rdf:RDF>
  </metadata>
  <text
     id="originalPlantxt"
     y="24.222485"
     x="29.530581"
     style="font-style:italic;font-variant:normal;font-weight:500;font-stretch:normal;font-size:22.57777786px;line-height:1.25;font-family:'URW Chancery L';-inkscape-font-specification:'URW Chancery L, Medium Italic';font-variant-ligatures:normal;font-variant-caps:normal;font-variant-numeric:normal;font-feature-settings:normal;text-align:start;letter-spacing:0px;word-spacing:0px;writing-mode:lr-tb;text-anchor:start;fill:#d8d8d8;fill-opacity:0.94509804;stroke:none;stroke-width:0.26458332"
     xml:space="preserve"><tspan
       style="font-style:italic;font-variant:normal;font-weight:500;font-stretch:normal;font-size:16.93333244px;font-family:'URW Chancery L';-inkscape-font-specification:'URW Chancery L, Medium Italic';font-variant-ligatures:normal;font-variant-caps:normal;font-variant-numeric:normal;font-feature-settings:normal;text-align:start;writing-mode:lr-tb;text-anchor:start;fill:#d8d8d8;fill-opacity:0.94509804;stroke-width:0.26458332"
       y="24.222485"
       x="29.530581"
       id="tspan899">Original Career Plan</tspan></text>
  <g
     id="originalPlan">
    <path
       style="opacity:1;fill:#000000;fill-opacity:0;stroke:#d8d8d8;stroke-width:1.44111288;stroke-linecap:square;stroke-linejoin:miter;stroke-miterlimit:4;stroke-dasharray:none;stroke-opacity:1;paint-order:markers stroke fill;font-variant-east_asian:normal;vector-effect:none;stroke-dashoffset:0"
       d="m 20.560079,41.575039 a 5.8198943,5.8198943 0 0 1 -5.819894,5.819894 5.8198943,5.8198943 0 0 1 -5.8198945,-5.819894 5.8198943,5.8198943 0 0 1 5.8198945,-5.819894 5.8198943,5.8198943 0 0 1 5.819894,5.819894 z"
       id="OPCircle1" />
    <path
       style="fill:#d8d8d8;fill-opacity:0;stroke:#d8d8d8;stroke-width:1.30480039;stroke-miterlimit:4;stroke-dasharray:none;stroke-opacity:1"
       d="m 20.579975,41.53698 h 94.146195 v 0.0134 H 20.579975 Z"
       id="OPLine1" />
    <path
       id="OPCircle2"
       d="m 126.41435,41.57659 a 5.8198943,5.8198943 0 0 1 -5.8199,5.81989 5.8198943,5.8198943 0 0 1 -5.81989,-5.81989 5.8198943,5.8198943 0 0 1 5.81989,-5.81989 5.8198943,5.8198943 0 0 1 5.8199,5.81989 z"
       style="opacity:1;fill:#000000;fill-opacity:0;stroke:#d8d8d8;stroke-width:1.44111288;stroke-linecap:square;stroke-linejoin:miter;stroke-miterlimit:4;stroke-dasharray:none;stroke-opacity:1;paint-order:markers stroke fill" />
    <path
       style="fill:#d8d8d8;fill-opacity:0;stroke:#d8d8d8;stroke-width:1.30492499;stroke-miterlimit:4;stroke-dasharray:none;stroke-opacity:1"
       d="m 126.41183,41.496338 h 198.61541 v 0.0055 H 126.41183 Z"
       id="OPLine2" />
    <path
       id="OPCircle3"
       d="m 337.76303,41.5766 a 5.8198943,5.8198943 0 0 1 -5.81989,5.81989 5.8198943,5.8198943 0 0 1 -5.81989,-5.81989 5.8198943,5.8198943 0 0 1 5.81989,-5.81989 5.8198943,5.8198943 0 0 1 5.81989,5.81989 z"
       style="opacity:1;fill:#000000;fill-opacity:0;stroke:#d8d8d8;stroke-width:1.44111288;stroke-linecap:square;stroke-linejoin:miter;stroke-miterlimit:4;stroke-dasharray:none;stroke-opacity:1;paint-order:markers stroke fill" />
    <path
       style="fill:#d8d8d8;fill-opacity:0;stroke:#d8d8d8;stroke-width:1.30492499;stroke-miterlimit:4;stroke-dasharray:none;stroke-opacity:1"
       d="m 337.56563,41.53897 h 41.54027 v 0.01651 h -41.54027 z"
       id="OPLine3" />
    <path
       id="OPCircle4"
       d="m 390.77642,41.54723 a 5.8198943,5.8198943 0 0 1 -5.81989,5.81989 5.8198943,5.8198943 0 0 1 -5.8199,-5.81989 5.8198943,5.8198943 0 0 1 5.8199,-5.81989 5.8198943,5.8198943 0 0 1 5.81989,5.81989 z"
       style="opacity:1;fill:#000000;fill-opacity:0;stroke:#d8d8d8;stroke-width:1.44111288;stroke-linecap:square;stroke-linejoin:miter;stroke-miterlimit:4;stroke-dasharray:none;stroke-opacity:1;paint-order:markers stroke fill" />
  </g>
  <text
     transform="scale(1.0000028,0.9999972)"
     id="currentProgressTxt"
     y="90.863274"
     x="29.163668"
     style="font-style:italic;font-variant:normal;font-weight:500;font-stretch:normal;font-size:22.57772636px;line-height:1.25;font-family:'URW Chancery L';-inkscape-font-specification:'URW Chancery L, Medium Italic';font-variant-ligatures:normal;font-variant-caps:normal;font-variant-numeric:normal;font-feature-settings:normal;text-align:start;letter-spacing:0px;word-spacing:0px;writing-mode:lr-tb;text-anchor:start;fill:#d8d8d8;fill-opacity:1;stroke:none;stroke-width:0.26458272;"
     xml:space="preserve"><tspan
       id="tspan925"
       style="font-style:italic;font-variant:normal;font-weight:500;font-stretch:normal;font-size:16.9332943px;font-family:'URW Chancery L';-inkscape-font-specification:'URW Chancery L, Medium Italic';font-variant-ligatures:normal;font-variant-caps:normal;font-variant-numeric:normal;font-feature-settings:normal;text-align:start;writing-mode:lr-tb;text-anchor:start;fill:#d8d8d8;fill-opacity:1;stroke-width:0.26458272;"
       y="90.863274"
       x="29.163668">Current Career progress</tspan></text>
  <g
     id="currentProgress">
    <path
       id="CPCircle1"
       d="m 20.108236,109.45179 a 5.8198943,5.8198943 0 0 1 -5.819894,5.8199 5.8198943,5.8198943 0 0 1 -5.8198944,-5.8199 5.8198943,5.8198943 0 0 1 5.8198944,-5.81989 5.8198943,5.8198943 0 0 1 5.819894,5.81989 z"
       style="opacity:1;fill:#000000;fill-opacity:0;stroke:#d8d8d8;stroke-width:1.44111288;stroke-linecap:square;stroke-linejoin:miter;stroke-miterlimit:4;stroke-dasharray:none;stroke-opacity:1;paint-order:markers stroke fill" />
    <path
       style="fill:#d8d8d8;fill-opacity:0;stroke:#d8d8d8;stroke-width:1.30492499;stroke-miterlimit:4;stroke-dasharray:none;stroke-opacity:1"
       d="m 20.004639,109.44702 h 94.628641 v 0.01 H 20.004639 Z"
       id="CPLine1" />
    <path
       id="CPCircle2"
       d="m 126.17009,109.45178 a 5.8198943,5.8198943 0 0 1 -5.81989,5.8199 5.8198943,5.8198943 0 0 1 -5.81989,-5.8199 5.8198943,5.8198943 0 0 1 5.81989,-5.81989 5.8198943,5.8198943 0 0 1 5.81989,5.81989 z"
       style="opacity:1;fill:#000000;fill-opacity:0;stroke:#d8d8d8;stroke-width:1.44111288;stroke-linecap:square;stroke-linejoin:miter;stroke-miterlimit:4;stroke-dasharray:none;stroke-opacity:1;paint-order:markers stroke fill" />
    <path
       style="fill:#d8d8d8;fill-opacity:0;stroke:#d8d8d8;stroke-width:1.30492499;stroke-miterlimit:4;stroke-dasharray:none;stroke-opacity:1"
       d="m 126.13182,109.44638 h 94.47688 v 0.0108 h -94.47688 z"
       id="CPLine2" />
    <path
       id="CPCircle3"
       d="m 232.23196,109.43101 a 5.8198943,5.8198943 0 0 1 -5.81989,5.8199 5.8198943,5.8198943 0 0 1 -5.8199,-5.8199 5.8198943,5.8198943 0 0 1 5.8199,-5.81989 5.8198943,5.8198943 0 0 1 5.81989,5.81989 z"
       style="opacity:1;fill:#000000;fill-opacity:0;stroke:#d8d8d8;stroke-width:1.44111288;stroke-linecap:square;stroke-linejoin:miter;stroke-miterlimit:4;stroke-dasharray:none;stroke-opacity:1;paint-order:markers stroke fill" />
    <path
       style="fill:#000000;fill-opacity:0;stroke:#d8d8d8;stroke-width:1.30492499;stroke-linecap:butt;stroke-linejoin:round;stroke-miterlimit:4;stroke-dasharray:none;stroke-opacity:0.92941176"
       d="m 232.43521,109.55352 c 15.05381,-3.51059 20.94631,-4.88474 46.14966,-4.97547 25.20334,-0.0907 31.68028,1.60094 47.96289,4.99849"
       id="CPLine3" />
    <path
       id="CPCircle4"
       d="m 337.94077,109.51409 a 5.8198943,5.8198943 0 0 1 -5.8199,5.8199 5.8198943,5.8198943 0 0 1 -5.81989,-5.8199 5.8198943,5.8198943 0 0 1 5.81989,-5.81989 5.8198943,5.8198943 0 0 1 5.8199,5.81989 z"
       style="opacity:1;fill:#000000;fill-opacity:0;stroke:#d8d8d8;stroke-width:1.44111288;stroke-linecap:square;stroke-linejoin:miter;stroke-miterlimit:4;stroke-dasharray:none;stroke-opacity:1;paint-order:markers stroke fill" />
    <path
       style="fill:#d8d8d8;fill-opacity:0;stroke:#d8d8d8;stroke-width:1.30492499;stroke-miterlimit:4;stroke-dasharray:none;stroke-opacity:1"
       d="m 337.92522,109.47519 h 94.11793 v 0.0111 h -94.11793 z"
       id="CPLine4" />
    <path
       id="CPCircle5"
       d="m 443.6288,109.43101 a 5.8198943,5.8198943 0 0 1 -5.81989,5.8199 5.8198943,5.8198943 0 0 1 -5.81989,-5.8199 5.8198943,5.8198943 0 0 1 5.81989,-5.81989 5.8198943,5.8198943 0 0 1 5.81989,5.81989 z"
       style="opacity:1;fill:#000000;fill-opacity:0;stroke:#d8d8d8;stroke-width:1.44111288;stroke-linecap:square;stroke-linejoin:miter;stroke-miterlimit:4;stroke-dasharray:none;stroke-opacity:1;paint-order:markers stroke fill" />
    <path
       style="fill:#d8d8d8;fill-opacity:0;stroke:#d8d8d8;stroke-width:1.30492499;stroke-miterlimit:4;stroke-dasharray:none;stroke-opacity:1"
       d="m 443.67109,109.44092 h 41.49398 v 0.0218 h -41.49398 z"
       id="CPLine5" />
    <path
       id="CPCircle6"
       d="m 496.83627,109.43101 a 5.8198943,5.8198943 0 0 1 -5.8199,5.8199 5.8198943,5.8198943 0 0 1 -5.81989,-5.8199 5.8198943,5.8198943 0 0 1 5.81989,-5.81989 5.8198943,5.8198943 0 0 1 5.8199,5.81989 z"
       style="opacity:1;fill:#000000;fill-opacity:0;stroke:#d8d8d8;stroke-width:1.44111288;stroke-linecap:square;stroke-linejoin:miter;stroke-miterlimit:4;stroke-dasharray:none;stroke-opacity:1;paint-order:markers stroke fill" />
  </g>
  <path
     d="m 13.892187,151.58427 v 6.43589 h -0.0134 v -6.43589 z m 52.911014,-0.0397 v 6.43589 h -0.0134 v -6.43589 z m 52.911019,0 v 6.43589 h -0.0134 v -6.43589 z m 52.92928,-0.0183 v 6.43589 h -0.0134 v -6.43589 z m 52.91102,0.0183 v 6.43589 h -0.0134 v -6.43589 z m 52.91101,0.0183 v 6.43589 h -0.0134 v -6.43589 z m 52.91101,-1e-5 v 6.43589 h -0.0134 v -6.43589 z m 52.92929,-0.0183 v 6.43589 h -0.0134 v -6.43589 z m 52.91101,0 v 6.43589 h -0.0134 v -6.43589 z m 52.93372,0 v 6.43589 h -0.0134 V 151.5446 Z M 13.876192,159.2465 H 490.15323 v 0.004 H 13.876192 Z"
     style="fill:#d8d8d8;fill-opacity:0;stroke:#d8d8d8;stroke-width:1.30492496;stroke-miterlimit:4;stroke-dasharray:none;stroke-opacity:1"
     id="Timeline" />
  <g
     id="years"
     transform="translate(0,-105.36103)">
    <path
       style="font-style:normal;font-weight:normal;font-size:medium;line-height:1.25;font-family:sans-serif;letter-spacing:0px;word-spacing:0px;fill:#d8d8d8;fill-opacity:0.94901961;stroke:none;stroke-width:0.26458332"
       d="m 14.732951,271.51588 q -0.806153,0 -1.214397,0.79584 -0.403076,0.79063 -0.403076,2.38228 0,1.58647 0.403076,2.38229 0.408244,0.79065 1.214397,0.79065 0.81132,0 1.214396,-0.79065 0.408243,-0.79582 0.408243,-2.38229 0,-1.59165 -0.408243,-2.38228 -0.403076,-0.79584 -1.214396,-0.79584 z m 0,-0.82682 q 1.297078,0 1.979207,1.02838 0.687297,1.0232 0.687297,2.97656 0,1.94818 -0.687297,2.97657 -0.682129,1.02319 -1.979207,1.02319 -1.297079,0 -1.984375,-1.02319 -0.682129,-1.02839 -0.682129,-2.97657 0,-1.95336 0.682129,-2.97656 0.687296,-1.02838 1.984375,-1.02838 z"
       id="no0" />
    <path
       d="m 65.246663,277.51775 h 1.705322 v -5.88595 l -1.855184,0.37208 v -0.95085 l 1.844849,-0.37206 h 1.043864 v 6.83678 h 1.705322 v 0.87849 h -4.444173 z"
       id="no1"
       style="font-style:normal;font-weight:normal;font-size:medium;line-height:1.25;font-family:sans-serif;letter-spacing:0px;word-spacing:0px;fill:#d8d8d8;fill-opacity:0.94901961;stroke:none;stroke-width:0.26458332" />
    <path
       d="m 119.41251,277.56507 h 3.64319 v 0.87849 h -4.89893 v -0.87849 q 0.59428,-0.61495 1.61748,-1.64846 1.02836,-1.03871 1.29191,-1.33843 0.50126,-0.56327 0.69763,-0.95086 0.20154,-0.39274 0.20154,-0.76996 0,-0.61497 -0.43409,-1.00253 -0.42891,-0.38756 -1.12137,-0.38756 -0.49093,0 -1.0387,0.17052 -0.5426,0.17052 -1.16272,0.51676 v -1.05421 q 0.63045,-0.2532 1.17822,-0.3824 0.54777,-0.1292 1.00252,-0.1292 1.1989,0 1.91203,0.59947 0.71314,0.59944 0.71314,1.60197 0,0.47541 -0.18087,0.90432 -0.1757,0.42376 -0.64596,1.00254 -0.12919,0.14986 -0.82165,0.86815 -0.69246,0.71315 -1.95337,1.99988 z"
       id="no2"
       style="font-style:normal;font-weight:normal;font-size:medium;line-height:1.25;font-family:sans-serif;letter-spacing:0px;word-spacing:0px;fill:#d8d8d8;fill-opacity:0.94901961;stroke:none;stroke-width:0.26458332" />
    <path
       d="m 174.28538,274.29852 q 0.74931,0.16021 1.16789,0.66662 0.42374,0.50644 0.42374,1.25058 0,1.14205 -0.78548,1.76734 -0.78548,0.62529 -2.23242,0.62529 -0.48576,0 -1.00252,-0.0982 -0.5116,-0.093 -1.05937,-0.28424 v -1.00769 q 0.43408,0.25323 0.95085,0.38243 0.51676,0.12917 1.08003,0.12917 0.98185,0 1.49345,-0.38756 0.51677,-0.38757 0.51677,-1.12655 0,-0.68212 -0.4806,-1.06455 -0.47542,-0.38756 -1.32808,-0.38756 h -0.89917 v -0.85783 h 0.94051 q 0.76998,0 1.17822,-0.30488 0.40825,-0.31007 0.40825,-0.88884 0,-0.59428 -0.42375,-0.90951 -0.41858,-0.32038 -1.20406,-0.32038 -0.42891,0 -0.91984,0.093 -0.49093,0.093 -1.08004,0.2894 v -0.9302 q 0.59428,-0.16536 1.11105,-0.24804 0.52193,-0.0827 0.98185,-0.0827 1.18856,0 1.88102,0.5426 0.69246,0.53745 0.69246,1.45727 0,0.6408 -0.3669,1.08522 -0.3669,0.43926 -1.04386,0.60978 z"
       id="no3"
       style="font-style:normal;font-weight:normal;font-size:medium;line-height:1.25;font-family:sans-serif;letter-spacing:0px;word-spacing:0px;fill:#d8d8d8;fill-opacity:0.94901961;stroke:none;stroke-width:0.26458332" />
    <path
       d="m 226.55698,271.41855 -2.6355,4.11861 h 2.6355 z m -0.27388,-0.9095 h 1.31258 v 5.02811 h 1.10071 v 0.86815 h -1.10071 v 1.81901 h -1.0387 v -1.81901 h -3.48299 v -1.00766 z"
       id="no4"
       style="font-style:normal;font-weight:normal;font-size:medium;line-height:1.25;font-family:sans-serif;letter-spacing:0px;word-spacing:0px;fill:#d8d8d8;fill-opacity:0.94901961;stroke:none;stroke-width:0.26458332" />
    <path
       d="m 277.03955,270.45086 h 4.09794 v 0.8785 h -3.14193 v 1.89134 q 0.22738,-0.0775 0.45475,-0.11366 0.22738,-0.0414 0.45475,-0.0414 1.29192,0 2.04639,0.70798 0.75448,0.70797 0.75448,1.91719 0,1.2454 -0.77515,1.93787 -0.77515,0.6873 -2.18591,0.6873 -0.48576,0 -0.99219,-0.0827 -0.50126,-0.0827 -1.0387,-0.24805 v -1.04904 q 0.46509,0.2532 0.96119,0.37724 0.49609,0.12401 1.04903,0.12401 0.894,0 1.41593,-0.47024 0.52193,-0.47025 0.52193,-1.27641 0,-0.80616 -0.52193,-1.2764 -0.52193,-0.47027 -1.41593,-0.47027 -0.41858,0 -0.83716,0.093 -0.41341,0.093 -0.84749,0.28937 z"
       id="no5"
       style="font-style:normal;font-weight:normal;font-size:medium;line-height:1.25;font-family:sans-serif;letter-spacing:0px;word-spacing:0px;fill:#d8d8d8;fill-opacity:0.94901961;stroke:none;stroke-width:0.26458332" />
    <path
       d="m 332.04494,274.09686 q -0.7028,0 -1.11621,0.48059 -0.40824,0.48059 -0.40824,1.31775 0,0.83199 0.40824,1.31774 0.41341,0.48061 1.11621,0.48061 0.7028,0 1.11105,-0.48061 0.41341,-0.48575 0.41341,-1.31774 0,-0.83716 -0.41341,-1.31775 -0.40825,-0.48059 -1.11105,-0.48059 z m 2.07223,-3.27112 v 0.95085 q -0.39274,-0.18605 -0.79582,-0.28421 -0.39791,-0.0982 -0.79065,-0.0982 -1.03353,0 -1.5813,0.69763 -0.5426,0.69763 -0.62011,2.10838 0.30489,-0.44958 0.76481,-0.68728 0.45992,-0.24288 1.01285,-0.24288 1.16272,0 1.83452,0.70797 0.67696,0.70278 0.67696,1.91719 0,1.18857 -0.7028,1.90686 -0.7028,0.71831 -1.87069,0.71831 -1.33842,0 -2.04638,-1.02319 -0.70797,-1.02839 -0.70797,-2.97657 0,-1.82935 0.86816,-2.91457 0.86817,-1.09037 2.33061,-1.09037 0.39274,0 0.79065,0.0775 0.40308,0.0775 0.83716,0.23255 z"
       id="no6"
       style="font-style:normal;font-weight:normal;font-size:medium;line-height:1.25;font-family:sans-serif;letter-spacing:0px;word-spacing:0px;fill:#d8d8d8;fill-opacity:0.94901961;stroke:none;stroke-width:0.26458332" />
    <path
       d="m 382.4095,270.64031 h 4.96094 v 0.44442 l -2.80086,7.27086 h -1.09038 l 2.6355,-6.83678 h -3.7052 z"
       id="no7"
       style="font-style:normal;font-weight:normal;font-size:medium;line-height:1.25;font-family:sans-serif;letter-spacing:0px;word-spacing:0px;fill:#d8d8d8;fill-opacity:0.94901961;stroke:none;stroke-width:0.26458332" />
    <path
       d="m 437.82215,274.80952 q -0.74414,0 -1.17305,0.3979 -0.42375,0.39791 -0.42375,1.09554 0,0.69762 0.42375,1.09553 0.42891,0.39793 1.17305,0.39793 0.74414,0 1.17306,-0.39793 0.42891,-0.40307 0.42891,-1.09553 0,-0.69763 -0.42891,-1.09554 -0.42375,-0.3979 -1.17306,-0.3979 z m -1.04386,-0.44443 q -0.6718,-0.16536 -1.04903,-0.62529 -0.37207,-0.45992 -0.37207,-1.12138 0,-0.92501 0.65629,-1.46243 0.66146,-0.53745 1.80867,-0.53745 1.15239,0 1.80868,0.53745 0.65629,0.53742 0.65629,1.46243 0,0.66146 -0.37724,1.12138 -0.37207,0.45993 -1.0387,0.62529 0.75448,0.17571 1.17306,0.68731 0.42375,0.5116 0.42375,1.25056 0,1.12138 -0.6873,1.72082 -0.68213,0.59947 -1.95854,0.59947 -1.27641,0 -1.9637,-0.59947 -0.68213,-0.59944 -0.68213,-1.72082 0,-0.73896 0.42375,-1.25056 0.42374,-0.5116 1.17822,-0.68731 z m -0.38241,-1.64848 q 0,0.59946 0.37207,0.93535 0.37724,0.33589 1.0542,0.33589 0.6718,0 1.04903,-0.33589 0.38241,-0.33589 0.38241,-0.93535 0,-0.59944 -0.38241,-0.93533 -0.37723,-0.33592 -1.04903,-0.33592 -0.67696,0 -1.0542,0.33592 -0.37207,0.33589 -0.37207,0.93533 z"
       id="no8"
       style="font-style:normal;font-weight:normal;font-size:medium;line-height:1.25;font-family:sans-serif;letter-spacing:0px;word-spacing:0px;fill:#d8d8d8;fill-opacity:0.94901961;stroke:none;stroke-width:0.26458332" />
    <path
       d="m 488.79994,278.35647 v -0.95086 q 0.39274,0.18606 0.79581,0.28422 0.40308,0.0982 0.79065,0.0982 1.03353,0 1.57613,-0.69244 0.54777,-0.69765 0.62529,-2.11357 -0.29972,0.44442 -0.75964,0.68213 -0.45993,0.2377 -1.01803,0.2377 -1.15755,0 -1.83451,-0.69763 -0.6718,-0.70279 -0.6718,-1.9172 0,-1.18856 0.7028,-1.90685 0.7028,-0.71832 1.87069,-0.71832 1.33842,0 2.04122,1.02839 0.70796,1.02319 0.70796,2.97656 0,1.82417 -0.86816,2.91454 -0.863,1.08522 -2.32544,1.08522 -0.39274,0 -0.79582,-0.0775 -0.40307,-0.0775 -0.83715,-0.23254 z m 2.07739,-3.27112 q 0.7028,0 1.11104,-0.48059 0.41341,-0.48059 0.41341,-1.31776 0,-0.83198 -0.41341,-1.31257 -0.40824,-0.48577 -1.11104,-0.48577 -0.7028,0 -1.11621,0.48577 -0.40825,0.48059 -0.40825,1.31257 0,0.83717 0.40825,1.31776 0.41341,0.48059 1.11621,0.48059 z"
       id="no9"
       style="font-style:normal;font-weight:normal;font-size:medium;line-height:1.25;font-family:sans-serif;letter-spacing:0px;word-spacing:0px;fill:#d8d8d8;fill-opacity:1;stroke:none;stroke-width:0.26458332" />
  </g>
  <path
     id="yearTxt"
     style="font-style:normal;font-weight:normal;font-size:medium;line-height:1.25;font-family:sans-serif;letter-spacing:0px;word-spacing:0px;fill:#d8d8d8;fill-opacity:0.99607843;stroke:none;stroke-width:0.26458332"
     d="m 264.75329,184.59805 v 0.89917 q -0.40307,-0.20671 -0.83715,-0.31006 -0.43409,-0.10335 -0.89917,-0.10335 -0.70797,0 -1.06454,0.21704 -0.3514,0.21704 -0.3514,0.65112 0,0.33072 0.25322,0.52192 0.25321,0.18604 1.01802,0.35657 l 0.32556,0.0724 q 1.01286,0.21704 1.43661,0.61495 0.42891,0.39274 0.42891,1.10071 0,0.80615 -0.64078,1.27638 -0.63562,0.47027 -1.75184,0.47027 -0.46508,0 -0.97151,-0.093 -0.50126,-0.0878 -1.05937,-0.26871 v -0.98184 q 0.5271,0.2739 1.0387,0.41342 0.51159,0.13435 1.01285,0.13435 0.6718,0 1.03353,-0.22736 0.36174,-0.23256 0.36174,-0.65114 0,-0.38757 -0.26355,-0.59428 -0.25838,-0.2067 -1.14205,-0.3979 l -0.33073,-0.0775 q -0.88367,-0.18603 -1.27641,-0.56844 -0.39274,-0.38756 -0.39274,-1.05936 0,-0.81647 0.57878,-1.26089 0.57877,-0.44442 1.64331,-0.44442 0.5271,0 0.99219,0.0775 0.46508,0.0775 0.85782,0.23254 z m -4.69738,0.7183 q -0.1602,-0.093 -0.3514,-0.13436 -0.18604,-0.0465 -0.41341,-0.0465 -0.80616,0 -1.24024,0.5271 -0.42891,0.52193 -0.42891,1.50378 v 3.04887 h -0.95602 v -5.78771 h 0.95602 v 0.89917 q 0.29972,-0.5271 0.78031,-0.78032 0.48059,-0.25838 1.16789,-0.25838 0.0982,0 0.21704,0.0155 0.11886,0.0103 0.26355,0.0362 z m -7.21403,1.98953 q -1.15239,0 -1.5968,0.26355 -0.44442,0.26355 -0.44442,0.89917 0,0.50643 0.33073,0.80616 0.33589,0.29454 0.9095,0.29454 0.79065,0 1.26608,-0.55809 0.48059,-0.56328 0.48059,-1.49345 v -0.21188 z m 1.89652,-0.39274 v 3.30209 h -0.95084 v -0.87846 q -0.32557,0.52709 -0.81132,0.78028 -0.48576,0.24807 -1.18856,0.24807 -0.88884,0 -1.41594,-0.49609 -0.52193,-0.50126 -0.52193,-1.33841 0,-0.97669 0.65113,-1.47278 0.65629,-0.4961 1.95336,-0.4961 h 1.33326 v -0.093 q 0,-0.65628 -0.43409,-1.01285 -0.42891,-0.36174 -1.20922,-0.36174 -0.4961,0 -0.96635,0.11886 -0.47026,0.11885 -0.90434,0.35657 v -0.8785 q 0.52193,-0.20154 1.01286,-0.29973 0.49092,-0.10335 0.95601,-0.10335 1.25574,0 1.87586,0.65112 0.62011,0.65113 0.62011,1.97403 z m -6.08748,0.17054 v 0.46508 h -4.37183 q 0.062,0.98186 0.58911,1.49862 0.53227,0.51159 1.47795,0.51159 0.54777,0 1.05937,-0.13435 0.51676,-0.13436 1.02319,-0.40308 v 0.89915 q -0.5116,0.21703 -1.04903,0.33072 -0.53744,0.11371 -1.09037,0.11371 -1.38493,0 -2.19625,-0.80615 -0.80615,-0.80615 -0.80615,-2.18074 0,-1.42109 0.76481,-2.25308 0.76998,-0.83716 2.07222,-0.83716 1.16789,0 1.84485,0.75448 0.68213,0.7493 0.68213,2.04121 z m -0.95085,-0.27906 q -0.0103,-0.7803 -0.43925,-1.24539 -0.42374,-0.46509 -1.12654,-0.46509 -0.79582,0 -1.27641,0.44959 -0.47542,0.44958 -0.54777,1.26606 z M 237.618,182.49999 h 1.12138 l 2.1394,3.17293 2.12391,-3.17293 h 1.12137 l -2.72851,4.04108 v 3.67416 h -1.04903 v -3.67416 z" />
</svg>
